<?xml version="1.0" encoding="UTF-8"?>
<svg xmlns="http://www.w3.org/2000/svg" width="296" height="180" viewBox="0 0 296 180" fill="none">
  <path fill-rule="evenodd" clip-rule="evenodd" d="M156.023 27C151.742 27 148.273 30.4622 148.273 34.7288V42.4576H156.023C160.304 42.4576 163.773 38.9984 163.773 34.7288C163.773 30.4592 160.301 27 156.023 27ZM137.953 61.3319C142.707 61.3319 146.56 57.4887 146.56 52.7474V44.1628H137.953C133.199 44.1628 129.345 48.0061 129.345 52.7474C129.345 57.4887 133.199 61.3319 137.953 61.3319ZM171.013 92.3923V79.3386H177.456V115.246H171.362V111.944C171.362 111.944 169.467 115.933 164.237 115.933C159.007 115.933 153.928 111.663 153.758 102.241C153.758 92.7824 158.937 88.5672 164.167 88.5672C169.118 88.5703 171.013 92.3923 171.013 92.3923ZM165.732 110.562C169.976 110.562 171.265 106.278 171.265 102.244C171.265 98.2101 170.001 93.9556 165.807 93.9556C161.614 93.9556 160.198 98.2131 160.198 102.244C160.198 105.748 161.487 110.562 165.732 110.562ZM77.1035 79.3477L64.9756 115.249H72.0886L74.7355 106.94H86.4814L89.0313 115.249H96.3566L84.3621 79.3477H77.1035ZM84.6804 101.043H76.5426L80.6631 88.2013L84.6804 101.043ZM97.5639 89.2445V115.246H103.955V102.988C103.955 95.5159 108.988 95.2105 110.238 95.2105C111.487 95.2105 112.53 95.4766 112.53 95.4766V88.8242C112.53 88.8242 111.887 88.5702 111.005 88.5702C105.908 88.5702 103.64 94.1068 103.64 94.1068V89.2445H97.5639ZM114.088 115.246V89.2445H120.164V94.1068C120.164 94.1068 122.432 88.5702 127.529 88.5702C128.411 88.5702 129.054 88.8242 129.054 88.8242V95.4766C129.054 95.4766 128.011 95.2105 126.762 95.2105C125.513 95.2105 120.479 95.5159 120.479 102.988V115.246H114.088ZM140.745 88.5702C130.461 88.5884 128.818 98.5941 128.799 102.48C128.799 108.358 131.677 115.914 140.794 115.914C149.911 115.914 151.521 107.203 151.521 107.203H145.875C145.763 107.638 144.417 110.605 140.855 110.605C134.848 110.605 135.188 104.01 135.188 104.01C135.188 104.01 149.717 104.034 151.927 104.01C152.215 98.1647 150.069 88.664 140.745 88.5702ZM145.512 99.4377H135.145C135.145 99.4377 135.539 93.9677 140.372 93.9435C145.315 93.9435 145.512 99.4377 145.512 99.4377ZM204.656 102.259C204.656 92.0779 198.022 88.5129 192.54 88.5129C187.095 88.5129 180.588 92.3682 180.588 102.259C180.588 112.15 186.919 115.936 192.54 115.936C198.162 115.936 204.656 112.44 204.656 102.259ZM192.622 110.562C190.063 110.562 187.007 108.824 187.007 102.259C187.007 95.6944 190.103 93.9557 192.622 93.9587C194.839 93.9587 198.25 95.3497 198.25 102.226C198.25 109.102 195.181 110.562 192.622 110.562ZM213.371 89.2446H207.231C207.231 89.2446 208.304 79.3417 217.882 79.3417C225.135 79.3417 228.443 84.6575 228.443 89.2446C228.443 95.2801 224.058 96.3566 224.058 96.3566C224.058 96.3566 229.631 97.1821 229.631 104.841C229.631 112.501 223.012 115.936 217.934 115.936C212.225 115.936 206.285 112.428 206.285 103.986H212.4C212.4 103.986 212.831 110.057 217.958 110.057C221.578 110.057 223.188 106.97 222.961 104.085C222.961 99.9791 219.538 99.1324 215.708 99.3471V94.2762C215.708 94.2762 222.391 95.2408 222.391 89.8464C222.391 86.2813 219.61 85.2351 217.958 85.2351C215.102 85.2381 213.662 87.5543 213.371 89.2446ZM103.285 145.109H101.897C101.897 145.109 102.07 143.132 100.638 143.132C99.2163 143.132 99.2164 145.204 99.2164 146.811V146.842V146.872C99.2164 148.479 99.2163 150.549 100.666 150.549C102.124 150.549 101.945 148.145 101.945 148.145H103.307C103.307 148.145 103.804 151.686 100.645 151.686C97.7025 151.686 97.7525 148.432 97.7733 147.078L97.7747 146.983C97.7756 146.921 97.7762 146.863 97.7762 146.811V146.784C97.776 145.63 97.7754 141.998 100.645 141.998C103.728 141.998 103.285 145.109 103.285 145.109ZM140.1 145.109H141.488C141.488 145.109 141.931 141.998 138.847 141.998C135.978 141.998 135.979 145.63 135.979 146.784V146.811C135.979 146.888 135.978 146.977 135.976 147.077L135.976 147.078C135.955 148.432 135.905 151.686 138.847 151.686C142.007 151.686 141.51 148.145 141.51 148.145H140.148C140.148 148.145 140.327 150.549 138.869 150.549C137.419 150.549 137.419 148.479 137.419 146.872V146.842V146.811C137.419 145.204 137.419 143.132 138.841 143.132C140.272 143.132 140.1 145.109 140.1 145.109ZM122.19 142.161V149.064C122.19 149.064 122.347 151.701 119.537 151.701C116.723 151.701 116.881 149.064 116.881 149.064V142.161H118.281V149.064C118.281 149.064 118.206 150.543 119.546 150.543C120.886 150.543 120.789 149.064 120.789 149.064V142.161H122.19ZM156.496 142.161H155.108V151.471H156.496V142.161ZM170.547 142.161V151.471H171.872V144.402L174.385 151.471H176.092V142.161H174.764V149.076L172.239 142.161H170.547ZM190.191 151.471V142.161H194.89V143.47H191.592V146.016H194.699V147.286H191.592V150.237H194.99V151.471H190.191ZM156.881 44.1631C161.635 44.1631 165.489 48.0063 165.489 52.7476C165.489 57.4889 161.635 61.3321 156.881 61.3321C152.127 61.3321 148.273 57.4889 148.273 52.7476V44.1631H156.881Z" fill="#333333"></path>
</svg>
